<?xml version="1.0"?>
<svg xmlns="http://www.w3.org/2000/svg" id="Users_Male_And_Female_Add" data-name="Users Male And Female Add" viewBox="0 0 512 512" width="512" height="512"><g id="Outline"><path d="M288,274.87V288a8,8,0,0,0,16,0V274.87a38.022,38.022,0,0,0-31.047-37.365l-23.65-4.4a8,8,0,0,0-2.926,15.731l23.646,4.4A22.017,22.017,0,0,1,288,274.87Z"/><path d="M248,320a8,8,0,0,0-8,8V504a8,8,0,0,0,16,0V328A8,8,0,0,0,248,320Z"/><path d="M56,320a8,8,0,0,0-8,8V504a8,8,0,0,0,16,0V328A8,8,0,0,0,56,320Z"/><path d="M120.34,23.64a8.01,8.01,0,1,0-7.24-4.58A7.983,7.983,0,0,0,120.34,23.64Z"/><path d="M234.52,52.09a84.883,84.883,0,0,0-18.38-26.95A86.2,86.2,0,0,0,188.649,6.79,87.684,87.684,0,0,0,154.6,0c-1.23,0-2.48.02-3.741.08a8,8,0,0,0,.661,15.98c1-.04,2.04-.06,3.08-.06a70.986,70.986,0,0,1,50.28,20.51,67.484,67.484,0,0,1,20.3,46.367l-7.682-4.321c-14.473-8.142-27.485-8.066-39.738.207a44.317,44.317,0,0,1-49.156.022,34.238,34.238,0,0,0-19.326-6.241c-6.575,0-13.264,1.967-20.445,6.011l-4.77,2.682A67.934,67.934,0,0,1,100.97,40.05a8,8,0,0,0-6-13.28,8.04,8.04,0,0,0-6.02,2.72A82.605,82.605,0,0,0,68.668,95.216a7.84,7.84,0,0,0,.106.819c.268,1.959.58,3.914.986,5.855l11.8,54.639.11.341a73.95,73.95,0,0,0,10.809,21.37,75.493,75.493,0,0,0,11.615,12.593A8.165,8.165,0,0,0,104,192v20.13L78.543,232.283,99.491,291.2,128,276.944V295.58L111.645,450.958,152,491.313l40.355-40.355L176,295.58V276.944L204.509,291.2l20.948-58.915L200,212.13V194.882a75.676,75.676,0,0,0,16.71-16.642,74.025,74.025,0,0,0,10.81-21.36l.11-.36,11.79-54.59.01-.05a84.346,84.346,0,0,0,1.79-17.22A82.313,82.313,0,0,0,234.52,52.09ZM152,244.686l-32-32V201.418a77.713,77.713,0,0,0,58.8,4.271c1.76-.576,3.492-1.221,5.2-1.918v8.915Zm-54.543-6.969,13.923-11.023L138.5,253.809,108.509,268.8ZM152,468.687l-23.645-23.645L143.2,304h17.6l14.847,141.042ZM160,288H144V268.944l8-4,8,4Zm35.491-19.2-29.986-14.993,27.115-27.115,13.923,11.023ZM212.16,152.38c-7.91,24.62-31.04,41.17-57.551,41.17h-.029c-26.49,0-49.62-16.54-57.54-41.14L85.465,98.8l11.211-6.3c4.725-2.661,8.846-3.955,12.6-3.955a18.364,18.364,0,0,1,10.417,3.531,60.316,60.316,0,0,0,66.979-.025c7.158-4.835,13.818-4.7,22.979.451l13.765,7.744Z"/><path d="M54.7,233.1l-23.654,4.4A38.021,38.021,0,0,0,0,274.87V504a8,8,0,0,0,16,0V274.87a22.016,22.016,0,0,1,17.973-21.635l23.65-4.4A8,8,0,0,0,54.7,233.1Z"/><path d="M318.46,465.529a8,8,0,0,0-11.32,11.321l.089.08a8.008,8.008,0,0,0,11.231-.08,8.01,8.01,0,0,0,.01-11.3Z"/><path d="M488.35,342.85a8.009,8.009,0,0,0,7.049-11.77l.031.029-.21-.349a8.055,8.055,0,0,0-6.89-3.92,8.008,8.008,0,0,0-6.87,12.09A8.052,8.052,0,0,0,488.35,342.85Z"/><path d="M508.3,362.33a7.991,7.991,0,0,0-7.75-6.03,8.227,8.227,0,0,0-1.97.24,8.007,8.007,0,0,0-5.79,9.72v.01A104.039,104.039,0,0,1,342.16,483.3a8.1,8.1,0,0,0-3.841-.981,7.983,7.983,0,0,0-7.019,4.16,7.882,7.882,0,0,0-.66,6.09,7.962,7.962,0,0,0,3.83,4.771A120.072,120.072,0,0,0,508.3,362.33Z"/><path d="M300.62,441.71A104.017,104.017,0,0,1,462.87,315.88a7.933,7.933,0,0,0,5.449,2.149,8,8,0,0,0,5.451-13.859A119.538,119.538,0,0,0,392.02,272H392A119.977,119.977,0,0,0,286.66,449.52a8,8,0,0,0,14.7-1.6,7.9,7.9,0,0,0-.67-6.08Z"/><path d="M416,464V416h48V368H416V320H368v48H320v48h48v48Zm-80-64V384h48V336h16v48h48v16H400v48H384V400Z"/><path d="M419.33,190.45a20.974,20.974,0,0,0,14.43-5.64A19.5,19.5,0,0,0,440,170.58V111.229A75.748,75.748,0,0,0,428.92,71.87a8,8,0,1,0-13.67,8.31A59.087,59.087,0,0,1,424,111.229V170.58a3.489,3.489,0,0,1-1.181,2.56,5.115,5.115,0,0,1-3.489,1.31,8,8,0,0,0,0,16Z"/><path d="M395.609,59.83a7.991,7.991,0,1,0-3.409-5.09A7.969,7.969,0,0,0,395.609,59.83Z"/><path d="M292.67,190.45a8,8,0,0,0,.05-16h-.05a5.081,5.081,0,0,1-3.49-1.31,3.488,3.488,0,0,1-1.18-2.56V111.229c.01-16.779,7.01-32.589,19.729-44.529A70.178,70.178,0,0,1,356,48a73.884,73.884,0,0,1,13.14,1.18,7.706,7.706,0,0,0,1.44.13A8,8,0,0,0,372,33.439,89.15,89.15,0,0,0,356,32a87.811,87.811,0,0,0-32.53,6.16,84.11,84.11,0,0,0-26.68,16.86,78.768,78.768,0,0,0-18.11,25.19A74.9,74.9,0,0,0,272,111.229V170.58a19.492,19.492,0,0,0,6.24,14.23A20.974,20.974,0,0,0,292.67,190.45Z"/><path d="M320,112a8,8,0,0,0-16,0v24h8v20a43.929,43.929,0,0,0,16.236,34.1A7.961,7.961,0,0,0,328,192v15.742H288a8,8,0,0,0,0,16h42.608L356,251.959,381.162,224H416a16.019,16.019,0,0,1,16,16v8a8,8,0,0,0,16,0v-8a32.036,32.036,0,0,0-32-32H384V192a7.961,7.961,0,0,0-.236-1.9A43.929,43.929,0,0,0,400,156V136h8V112a8,8,0,0,0-16,0v8H320Zm48,102.708-12,13.333L344,214.7V198.323a43.772,43.772,0,0,0,24,0ZM384,136v20a28,28,0,0,1-56,0V136Z"/></g></svg>
